<svg xmlns="http://www.w3.org/2000/svg" viewBox="0 0 512 512">
  <defs>
    <radialGradient id="bg" cx="50%" cy="50%" r="50%">
      <stop offset="0%" stop-color="#f0e8ff"/>
      <stop offset="100%" stop-color="#2d1b5e"/>
    </radialGradient>
    <linearGradient id="wing" x1="0%" y1="0%" x2="100%" y2="100%">
      <stop offset="0%" stop-color="#f0e4ff" stop-opacity="0.9"/>
      <stop offset="100%" stop-color="#b89cd8" stop-opacity="0.7"/>
    </linearGradient>
  </defs>
  <rect width="512" height="512" rx="96" fill="#1a0a3e"/>
  <circle cx="256" cy="256" r="240" fill="url(#bg)" opacity="0.3"/>
  <circle cx="256" cy="256" r="236" fill="#1a0a3e" opacity="0.15"/>
  <circle cx="200" cy="210" r="70" fill="rgba(255,255,255,0.9)"/>
  <circle cx="200" cy="210" r="50" fill="rgba(255,255,255,0.15)"/>
  <g transform="translate(256,256) scale(3.2)">
    <path d="M0,-5 Q-28,-38 -38,-22 Q-48,-5 -28,12 Q-16,22 0,5" fill="url(#wing)" stroke="rgba(255,255,255,0.5)" stroke-width="1"/>
    <path d="M0,-5 Q28,-38 38,-22 Q48,-5 28,12 Q16,22 0,5" fill="url(#wing)" stroke="rgba(255,255,255,0.5)" stroke-width="1"/>
    <path d="M0,5 Q-22,18 -32,28 Q-38,38 -16,32 Q-6,26 0,10" fill="url(#wing)" stroke="rgba(255,255,255,0.4)" stroke-width="1"/>
    <path d="M0,5 Q22,18 32,28 Q38,38 16,32 Q6,26 0,10" fill="url(#wing)" stroke="rgba(255,255,255,0.4)" stroke-width="1"/>
    <circle cx="-15" cy="-12" r="2" fill="rgba(255,255,255,0.5)"/>
    <circle cx="12" cy="-8" r="1.5" fill="rgba(255,255,255,0.4)"/>
    <circle cx="0" cy="0" r="2.5" fill="rgba(255,255,255,0.6)"/>
  </g>
  <circle cx="300" cy="160" r="3" fill="rgba(255,255,255,0.5)"/>
  <circle cx="340" cy="200" r="2" fill="rgba(255,255,255,0.4)"/>
  <circle cx="100" cy="340" r="2.5" fill="rgba(255,255,255,0.3)"/>
  <circle cx="380" cy="360" r="2" fill="rgba(255,255,255,0.35)"/>
  <circle cx="140" cy="150" r="1.5" fill="rgba(255,255,255,0.4)"/>
  <circle cx="360" cy="120" r="2" fill="rgba(255,255,255,0.3)"/>
</svg>
